# xmcd
#
# Track frame offsets:
#	150
#	5034
#	21388
#	37909
#	55268
#	72798
#	92039
#	108641
#	123307
#	125371
#	140520
#	147074
#	164421
#	179156
#	184572
#	200182
#
# Disc length: 2901 seconds
#
# Revision: 5
# Processed by: cddbd v1.5.2PL0 Copyright (c) Steve Scherf et al.
# Submitted via: EasyCDDAExtractor 15.3.0.1
#
DISCID=ec0b5310
DTITLE=Obie Bermudez - Lo Que Trajo El Barco
DYEAR=2006
DGENRE=Latin
TTITLE0=El Millonario (Intro)
TTITLE1=La Soledad
TTITLE2=Decisiones Que Matan
TTITLE3=Mejor Asi
TTITLE4=Dame Una Señal
TTITLE5=Soga En Mano
TTITLE6=Si Fuera Facil
TTITLE7=Ella Tiene Algo (El Secreto De Victoria)
TTITLE8=Quieren Salsa (Interlude)
TTITLE9=Spanglish
TTITLE10=I Am (Interlude)
TTITLE11=La Mas Bella
TTITLE12=El Amanecer
TTITLE13=Hablando Del Barco (Interlude)
TTITLE14=Sigo Con Ella
TTITLE15=Cuando Se Ama A Una Mujer (Featuring Gustavo, Reyli, Fonseca)
EXTD=
EXTT0=
EXTT1=
EXTT2=
EXTT3=
EXTT4=
EXTT5=
EXTT6=
EXTT7=
EXTT8=
EXTT9=
EXTT10=
EXTT11=
EXTT12=
EXTT13=
EXTT14=
EXTT15=
PLAYORDER=
